# xmcd
#
# Track frame offsets: 
#        150
#        15342
#        29782
#        42599
#        58098
#        75380
#        88440
#        106512
#        122944
#        136337
#
# Disc length: 2007 seconds
#
# Revision: 0
# Processed by: cddbd v1.5.1PL0 Copyright (c) Steve Scherf et al.
# Submitted via: ExactAudioCopy v0.95a5
#
DISCID=8207d50a
DTITLE=Southern Strangers - He Holds My Hand
DYEAR=2003
DGENRE=Bluegrass
TTITLE0=Consider The Lillies
TTITLE1=I Want To Tell Somebody
TTITLE2=He Holds My Hand
TTITLE3=Leaning On The Everlasting Arms
TTITLE4=The Other Side Of Midnight
TTITLE5=God Put A Rainbow In The Clouds
TTITLE6=The Lighthouse
TTITLE7=Just Any Day Now
TTITLE8=Just A Closer Walk With Thee
TTITLE9=Where He Leads Me
EXTD=
EXTT0=
EXTT1=
EXTT2=
EXTT3=
EXTT4=
EXTT5=
EXTT6=
EXTT7=
EXTT8=
EXTT9=
PLAYORDER=
